<svg enable-background="new 0 0 612 792" viewBox="0 0 612 792" xmlns="http://www.w3.org/2000/svg"><path d="m228.45 318.87h155v155h-155z" fill="#1c2c34"/><path d="m225.95 316.37v160h160v-160zm50.05 135.62h-25.67v-8.56h17.11v-85.56h72.73c2.36 0 4.27 1.92 4.27 4.28v17.1c0 2.36-1.91 4.28-4.27 4.28h-55.62v-8.56h50.24c.61 0 1.09-.5 1.09-1.1v-6.35c0-.61-.49-1.1-1.09-1.1h-58.79zm68.45-4.27c0 1.87-1.2 3.45-2.86 4.04-.44.14-.92.24-1.41.24h-34.47c-2.23 0-4.04-1.81-4.04-4.04v-17.59c0-2.23 1.81-4.05 4.04-4.05h21.63v8.56h-16.01c-.61 0-1.09.5-1.09 1.1v6.35c0 .61.49 1.1 1.09 1.1h23.65c.52 0 .92-.41.92-.92v-23.83c0-.51-.4-.92-.92-.92h-40.75c-.61 0-1.1.5-1.1 1.1v33.12h-8.56v-38.74c0-2.23 1.81-4.04 4.04-4.04h51.58c2.36 0 4.27 1.91 4.27 4.27v34.25zm17.12-64.18c0 3.12-.84 6.04-2.29 8.56-.94 1.61-2.13 3.06-3.51 4.27 1.38 1.23 2.57 2.67 3.51 4.28 1.46 2.52 2.29 5.43 2.29 8.56v25.66c0 6.34-3.45 11.86-8.56 14.82v-40.48c0-4.73-3.83-8.56-8.56-8.56h-59.89v-8.56h59.89c4.73 0 8.56-3.83 8.56-8.56v-25.78c-.05-4.68-3.86-8.45-8.56-8.45h-85.56v85.56h-8.56v-94.12h94.12c3.12 0 6.04.84 8.56 2.29 2.6 1.51 4.76 3.67 6.27 6.27 1.46 2.52 2.29 5.44 2.29 8.56z" fill="#fee000"/></svg>